PathFileType	4	(X/Y/Z)	/Users/niels/Desktop/University/Third Semester/Perception and Action/Exam/Gymnastics Motion Tracking/Code for Gym Tracking/Analyzed Data/Webcam_Backflip/id2007_1_baseline_Sports2D/id2007_1_baseline_Sports2D_px_person00.trc
DataRate	CameraRate	NumFrames	NumMarkers	Units	OrigDataRate	OrigDataStartFrame	OrigNumFrames
29.776119402985074	29.776119402985074	14	22	m	29.776119402985074	33	134
Frame#	Time	Hip			RHip			RKnee			RAnkle			RBigToe			RSmallToe			RHeel			LHip			LKnee			LAnkle			LBigToe			LSmallToe			LHeel			Neck			Head			Nose			RShoulder			RElbow			RWrist			LShoulder			LElbow			LWrist		
		X1	Y1	Z1	X2	Y2	Z2	X3	Y3	Z3	X4	Y4	Z4	X5	Y5	Z5	X6	Y6	Z6	X7	Y7	Z7	X8	Y8	Z8	X9	Y9	Z9	X10	Y10	Z10	X11	Y11	Z11	X12	Y12	Z12	X13	Y13	Z13	X14	Y14	Z14	X15	Y15	Z15	X16	Y16	Z16	X17	Y17	Z17	X18	Y18	Z18	X19	Y19	Z19	X20	Y20	Z20	X21	Y21	Z21	X22	Y22	Z22
33	1.1082706766917294	0.9940382462170252	-0.7064901935362788	0.0	0.9901810782816329	-0.7110465399035587	0.0	1.0219147513194595	-1.0473952288341886	0.0	1.0727394964556454	-1.086154956204538	0.0			0.0	1.625089599609375	-0.343052490234375	0.0			0.0	1.0125629546079138	-0.7134419143043881	0.0	1.0231590198531626	-1.034999864948887	0.0	0.9669831276942794	-1.0694028405279112	0.0			0.0			0.0			0.0	0.9748771985419878	-0.2409527979528927	0.0	1.0201593162137879	-0.05306684341216246	0.0	1.0529455922517537	-0.16271370292514487	0.0	0.9543138604466458	-0.2866888838468744	0.0	1.1752283811946451	-0.3133420050621166	0.0	1.3734486241370718	-0.24222801878347267	0.0	0.9732125552218683	-0.29691174146923044	0.0	1.1510768976481376	-0.4132349947633695	0.0	1.2282915474499516	-0.40787599981688305	0.0
34	1.1418546365914788	1.0035814912377818	-0.6973368621576717	0.0	1.0022853989958107	-0.700065509498758	0.0	1.0383479522555383	-1.0416570101860436	0.0	1.0728242798149312	-1.0852765158012807	0.0			0.0	1.625089599609375	-0.343052490234375	0.0			0.0	1.020694519698985	-0.7036744193251879	0.0	1.0377222543925206	-1.0257354549588915	0.0	0.9930565203818755	-1.0720147412992613	0.0			0.0			0.0			0.0	0.9663140373120827	-0.23763478752930808	0.0	1.0040096209225804	-0.048586037718806326	0.0	1.0409281299868065	-0.15749380586554695	0.0	0.9468703831663298	-0.27965394632496676	0.0	1.1740768130257426	-0.27595095488016474	0.0	1.3537650320371588	-0.17342614706684845	0.0	0.9764249948559103	-0.29421925267880655	0.0	1.1567415573880657	-0.3892888763880066	0.0	1.2343603319476097	-0.3617931855989474	0.0
35	1.1754385964912282	1.0123566023248494	-0.6887144907696865	0.0	1.0136585853783764	-0.6894015936432646	0.0	1.053300504753221	-1.0365844845063283	0.0	1.0730845999696792	-1.0837032767539978	0.0			0.0	1.625089599609375	-0.343052490234375	0.0			0.0	1.027391843987037	-0.6943865768360102	0.0	1.0508912743316603	-1.017228413369299	0.0	1.0242242750146082	-1.0748398382837965	0.0			0.0			0.0			0.0	0.95855136402634	-0.2350773401213526	0.0	0.9903146914558875	-0.044543389415738405	0.0	1.0302998637845187	-0.1527004323411019	0.0	0.9399728814380829	-0.2725598974574356	0.0	1.1688571095498796	-0.24160108279524506	0.0	1.3268621846948583	-0.11761511352323177	0.0	0.9787003931563913	-0.29197996741373794	0.0	1.1578263771706676	-0.3684037998919824	0.0	1.236175334367935	-0.32050886177493343	0.0
36	1.2090225563909776	1.0205117612598034	-0.6812300292457183	0.0	1.023927877736534	-0.6801187749663692	0.0	1.0660664897820076	-1.0329763366885092	0.0	1.0735999988997962	-1.0814752302593542	0.0			0.0	1.625089599609375	-0.343052490234375	0.0			0.0	1.0329957990417578	-0.6864856220236633	0.0	1.0629290305006014	-1.0111708031501099	0.0	1.0540209655344244	-1.077149926831101	0.0			0.0			0.0			0.0	0.9513796945556598	-0.23356307095069237	0.0	0.9793650095821594	-0.04121099844725914	0.0	1.0208151357318036	-0.1488431678186194	0.0	0.9336872831398189	-0.2661495637169811	0.0	1.1613360674446964	-0.21094974745758424	0.0	1.296732468320035	-0.07538924743420454	0.0	0.9779312939389565	-0.2902337659359533	0.0	1.1554194438143586	-0.3507258770422721	0.0	1.232335680363475	-0.2842446468125649	0.0
37	1.242606516290727	1.0281316661454765	-0.6752029761022138	0.0	1.032758463227813	-0.6728226021139773	0.0	1.0762629613434624	-1.0310753878942578	0.0	1.0744125348284317	-1.0789852029798226	0.0			0.0	1.625089599609375	-0.343052490234375	0.0			0.0	1.0379252463406115	-0.6804384050536185	0.0	1.073886417944471	-1.0084366460695904	0.0	1.0769396535912756	-1.0785531624662388	0.0			0.0			0.0			0.0	0.9447596341077301	-0.23321954208989815	0.0	0.9711024315477041	-0.03888688740727311	0.0	1.0122949779670882	-0.14630421985795838	0.0	0.9280197370132196	-0.26109526487141754	0.0	1.1534854129389187	-0.18439719212500855	0.0	1.2670499529697767	-0.045610578437256834	0.0	0.9743307548881319	-0.28892872279808474	0.0	1.1501115571929024	-0.33571674012289116	0.0	1.2229476747408299	-0.2517922229921153	0.0
38	1.2761904761904763	1.035045598136835	-0.6706959947679386	0.0	1.039962016978827	-0.6676641542476307	0.0	1.083872727706018	-1.0305271426239422	0.0	1.0755098861970052	-1.0768099826533644	0.0			0.0	1.625089599609375	-0.343052490234375	0.0			0.0	1.04258512785141	-0.6762456876034917	0.0	1.0833303166619879	-1.008579987635347	0.0	1.0911826018255855	-1.0791677810711207	0.0			0.0			0.0			0.0	0.9389199987020963	-0.23402152619333255	0.0	0.9650971430912162	-0.03777336489802572	0.0	1.0048714946892816	-0.14528249026858073	0.0	0.9229722767750252	-0.25779636641264586	0.0	1.1467890644900185	-0.1623075993338276	0.0	1.240492610160923	-0.026146590269781233	0.0	0.9698428550415701	-0.28805651661824483	0.0	1.1423512594061205	-0.3234535432531711	0.0	1.210077356553713	-0.222184180381487	0.0
39	1.3097744360902257	1.0408810996261948	-0.6676392065326695	0.0	1.0456271742910574	-0.6644783097648344	0.0	1.0891721837384136	-1.0307872358446657	0.0	1.076846314756039	-1.075311471057111	0.0			0.0	1.625089599609375	-0.343052490234375	0.0			0.0	1.0469197093869147	-0.6736615323085109	0.0	1.0904637551439536	-1.0103984674617033	0.0	1.0980121085544812	-1.0792959523930632	0.0			0.0			0.0			0.0	0.9342068978844319	-0.23575025283899248	0.0	0.9607686420634806	-0.03782361831279681	0.0	0.9989127299452615	-0.14566671209892698	0.0	0.918678095284424	-0.2562611686669442	0.0	1.141741661552298	-0.14510664539578128	0.0	1.2186761710617582	-0.014682494607860424	0.0	0.9654320918528839	-0.2876872825214589	0.0	1.1330630428357993	-0.3147021983940658	0.0	1.19675362632066	-0.19640756295375852	0.0
40	1.343358395989975	1.04525630542037	-0.6659408092281056	0.0	1.0499592740441002	-0.6629314966456207	0.0	1.0925913612361013	-1.031413360078374	0.0	1.0783640554205818	-1.0744716093373525	0.0			0.0	1.625089599609375	-0.343052490234375	0.0			0.0	1.0502225477572513	-0.6724364677181867	0.0	1.0946822781641272	-1.0127716410265053	0.0	1.0996869883781581	-1.079139639430362	0.0			0.0			0.0			0.0	0.9307891221419847	-0.23791646539158426	0.0	0.9577180574363884	-0.038672150857414066	0.0	0.9947058542554958	-0.1469960708869182	0.0	0.9153933148521216	-0.256093237666071	0.0	1.1380063831574279	-0.13309054231824233	0.0	1.202404503427483	-0.009110974022071932	0.0	0.9596839272596989	-0.28774902560798477	0.0	1.123578225393933	-0.30960188821142576	0.0	1.1855558888105227	-0.17619153485352634	0.0
41	1.3769423558897245	1.0479366538961654	-0.6654154692270807	0.0	1.0529818552525625	-0.6625520507765982	0.0	1.094514118658432	-1.0320995798377577	0.0	1.079978579216889	-1.0740417831212792	0.0			0.0	1.625089599609375	-0.343052490234375	0.0			0.0	1.0517575251978557	-0.6722914730749101	0.0	1.0961815517083455	-1.0149450306422656	0.0	1.0983359282785645	-1.0787107229300401	0.0			0.0			0.0			0.0	0.9285539496718778	-0.23978654121432988	0.0	0.9557785088741872	-0.03973275440149777	0.0	0.9922097017192733	-0.14855588042578197	0.0	0.9132853557501803	-0.256648717857884	0.0	1.135032271184618	-0.1261425527034535	0.0	1.192128058718468	-0.007559958345505105	0.0	0.9511484591246224	-0.2879482677056649	0.0	1.1152048742351972	-0.30744488101040723	0.0	1.178114079666764	-0.16206231935891605	0.0
42	1.4105263157894739	1.0488619908009624	-0.6656660505874727	0.0	1.0544913232215338	-0.662725747195606	0.0	1.0951610148838358	-1.0326291450429548	0.0	1.0815314591136314	-1.0737294903449686	0.0			0.0	1.625089599609375	-0.343052490234375	0.0			0.0	1.051306799320465	-0.6727823756900371	0.0	1.0959174264304217	-1.0164163090342289	0.0	1.095934367700279	-1.0778661117336108	0.0			0.0			0.0			0.0	0.9272818865511532	-0.2405736312166299	0.0	0.9547847897950654	-0.04040220302271902	0.0	0.9910752418612336	-0.14953929115741285	0.0	0.9123580679270074	-0.2572269844136982	0.0	1.1323865830673103	-0.12376861211542704	0.0	1.188204925660952	-0.008512543417738438	0.0	0.9407731958024451	-0.28794809027483265	0.0	1.109023526064695	-0.30756645029123386	0.0	1.1753519390522222	-0.15317716807254728	0.0
43	1.4441102756892232	1.0481387659034034	-0.6662227021662772	0.0	1.0542616201492463	-0.6629437080700287	0.0	1.0946049886487883	-1.0328789377171463	0.0	1.0827326832594006	-1.07331656360656	0.0			0.0	1.625089599609375	-0.343052490234375	0.0			0.0	1.0493497830066703	-0.6734338922020543	0.0	1.0951113417636713	-1.016962101387288	0.0	1.094280515094064	-1.0765323363608423	0.0			0.0			0.0			0.0	0.926824421268454	-0.23975605967374292	0.0	0.9544639262047687	-0.040240740767239484	0.0	0.9909112410797906	-0.14933346802046887	0.0	0.9125005867987497	-0.25723830204157727	0.0	1.129710926824644	-0.12541270616791622	0.0	1.1907198110533526	-0.011095289820427335	0.0	0.9311821523645928	-0.28753845335666056	0.0	1.1058246456487502	-0.309439777563853	0.0	1.1777662763682812	-0.1478693820219147	0.0
44	1.4776942355889726	1.0460890863710146	-0.6667753407116495	0.0	1.0522217558379188	-0.6630807692704962	0.0	1.092843591691259	-1.032827765282102	0.0	1.0831254434230098	-1.0727501088417488	0.0			0.0	1.625089599609375	-0.343052490234375	0.0			0.0	1.0472064682266193	-0.6739302066272227	0.0	1.0948620724891016	-1.016691210932481	0.0	1.0944710844481675	-1.0748940551682802	0.0			0.0			0.0			0.0	0.9271587519698687	-0.23730640322695007	0.0	0.9545384362064327	-0.03907027314534614	0.0	0.9915383012724927	-0.14780873094899633	0.0	0.9133912878653839	-0.25641797005207506	0.0	1.1267479315311504	-0.13066882471045996	0.0	1.199234816009507	-0.015193604632932779	0.0	0.9254632822216445	-0.2866589346427289	0.0	1.1060799060401492	-0.31221415517667156	0.0	1.1855142944223975	-0.14421120228453888	0.0
45	1.511278195488722	1.043185466804275	-0.667189520546479	0.0	1.0484537113972343	-0.6632814827628409	0.0	1.089819517730867	-1.032485345080582	0.0	1.08212765137403	-1.0722366180775182	0.0			0.0	1.625089599609375	-0.343052490234375	0.0			0.0	1.0465818961811453	-0.6740857325144024	0.0	1.0958244281600014	-1.0157944073192462	0.0	1.0964986341521208	-1.0733242307403923	0.0			0.0			0.0			0.0	0.9283927276380489	-0.23366485831035783	0.0	0.9549318136777414	-0.03701860051560102	0.0	0.9930136179192611	-0.14536634264239293	0.0	0.9145099097979803	-0.2549343674981423	0.0	1.1235847891131063	-0.13931568055063073	0.0	1.2128555282424738	-0.02120857087534927	0.0	0.9266903582480914	-0.28538970857986684	0.0	1.1099826615579835	-0.31509507816522264	0.0	1.1983005261007296	-0.14123548883529777	0.0
46	1.5448621553884714	1.0397912344051423	-0.6674291431639949	0.0	1.043052198247692	-0.6636715760963362	0.0	1.08535906155484	-1.0318221451895222	0.0	1.0791934685382865	-1.0722814823387348	0.0			0.0	1.625089599609375	-0.343052490234375	0.0			0.0	1.0484345681660456	-0.6738111480749402	0.0	1.0977027020290135	-1.0142948763235526	0.0	1.0993612528849885	-1.0722441431155063	0.0			0.0			0.0			0.0	0.9306946016836782	-0.2295342471771714	0.0	0.9559914199528106	-0.03449183831475262	0.0	0.99545580885349	-0.14266047200957158	0.0	0.9154000418775311	-0.2532960436998532	0.0	1.1208197724834617	-0.151341784230936	0.0	1.2304815510409648	-0.02994251275137291	0.0	0.9360882304230813	-0.2839635002066777	0.0	1.117412988785992	-0.3186662605305423	0.0	1.2151610529071988	-0.14030990652678954	0.0
